# xmcd CD database file
#
# Track frame offsets:
#	187
#	24600
#	65877
#	93562
#	112612
#	145632
#
# Disc length: 2423 seconds
#
# Revision: 3
# Processed by: cddbd v1.5.2PL0 Copyright (c) Steve Scherf et al.
# Submitted via: CDex 1.51
#
DISCID=4a097506
DTITLE=Nine Inch Nails - Fixed
DYEAR=1992
DGENRE=Industrial
TTITLE0=Gave Up (Remixed by Coil with Danny Hyde)
TTITLE1=Wish (Remixed by J.G. Thirlwell)
TTITLE2=Happiness In Slavery (Remixed by T. Reznor and Chris Vrenna with P.K.)
TTITLE3=Throw This Away (Assembled by T. Reznor and C. Vrenna with Butch Vig)
TTITLE4=Fist Fuck (Remixed by J.G. Thirlwell)
TTITLE5=Screaming Slave
EXTD=YEAR: 1992
EXTT0=
EXTT1=
EXTT2=
EXTT3=
EXTT4=
EXTT5=
PLAYORDER=
